<?xml version="1.0" standalone="no"?>
<!DOCTYPE svg PUBLIC "-//W3C//DTD SVG 20010904//EN"
 "http://www.w3.org/TR/2001/REC-SVG-20010904/DTD/svg10.dtd">
<svg version="1.0" xmlns="http://www.w3.org/2000/svg"
 width="800.000000pt" height="800.000000pt" viewBox="0 0 800.000000 800.000000"
 preserveAspectRatio="xMidYMid meet">
<metadata>
Created by potrace 1.11, written by Peter Selinger 2001-2013
</metadata>
<g transform="translate(0.000000,800.000000) scale(0.100000,-0.100000)"
fill="#000000" stroke="none">
<path d="M3755 7331 c-3 -5 -2 -12 3 -15 5 -3 9 1 9 9 0 17 -3 19 -12 6z"/>
<path d="M3950 7250 c-13 -8 -12 -10 3 -10 9 0 17 5 17 10 0 12 -1 12 -20 0z"/>
<path d="M2388 7242 l-1128 -2 0 -293 c0 -160 0 -1399 0 -2751 0 -2248 -2
-2458 -16 -2440 -15 17 -15 17 -1 -7 14 -23 16 -89 15 -500 l-1 -474 1041 -3
1042 -2 0 232 c1 1405 1 1385 17 1353 13 -25 89 -153 224 -378 16 -27 29 -51
29 -54 0 -3 8 -17 19 -31 10 -15 28 -43 39 -63 32 -57 45 -78 80 -133 17 -28
32 -54 32 -59 0 -5 10 -23 23 -40 24 -34 106 -172 134 -227 10 -19 20 -37 23
-40 10 -9 60 -90 60 -95 0 -4 -4 -4 -8 -1 -4 2 -9 -4 -9 -15 -1 -10 2 -19 8
-19 5 0 9 5 9 10 0 6 5 10 10 10 6 0 10 -5 10 -12 0 -6 14 -33 31 -59 18 -28
28 -54 23 -61 -4 -7 -4 -10 1 -6 11 11 58 -60 49 -74 -4 -6 -3 -8 4 -4 11 6
28 -30 23 -49 -1 -5 1 -7 5 -2 10 9 56 -73 50 -89 -3 -7 0 -11 7 -8 8 3 22
-14 35 -41 l22 -45 1215 0 c827 0 1215 3 1215 10 0 6 -19 43 -41 83 -159 275
-205 357 -224 392 -11 22 -40 73 -63 113 -24 41 -40 78 -36 85 4 6 4 9 -1 5
-10 -10 -21 8 -160 257 -62 110 -121 216 -133 235 -12 19 -30 51 -40 70 -23
43 -102 182 -153 270 -59 102 -90 160 -84 160 3 0 -4 9 -16 21 -11 11 -18 27
-15 35 3 8 2 13 -3 10 -4 -3 -18 13 -30 34 -12 22 -19 40 -15 40 4 0 0 6 -9
13 -21 16 -67 109 -60 122 4 5 2 7 -2 3 -5 -5 -18 9 -31 29 -16 27 -19 40 -11
45 8 5 7 8 -4 8 -15 0 -20 6 -30 35 -1 6 -11 19 -21 29 -9 10 -14 25 -10 31 7
12 112 99 112 92 0 -1 38 34 84 80 85 83 103 97 92 67 -3 -8 -2 -12 4 -9 6 3
10 1 10 -5 0 -6 5 -8 10 -5 6 4 4 12 -5 21 -19 20 -19 21 10 52 39 42 118 143
146 187 44 69 63 99 76 122 30 56 48 83 56 83 5 0 7 -7 3 -15 -3 -8 -1 -15 4
-15 13 0 13 27 -1 35 -7 5 -5 15 6 31 8 13 13 24 10 24 -4 0 2 14 12 30 9 17
21 30 26 30 4 0 6 4 2 10 -3 5 4 26 15 47 11 21 20 43 20 49 0 6 7 17 15 24 8
7 12 16 10 21 -3 4 4 25 15 46 11 21 20 45 20 55 0 9 4 19 10 23 5 3 7 12 4
19 -3 8 0 17 5 21 6 3 9 10 6 15 -3 5 1 23 10 40 8 16 15 32 14 35 -2 8 22
138 28 155 14 38 34 304 34 450 -1 153 -16 388 -27 420 -3 8 -8 29 -10 45 -3
17 -12 66 -21 110 -8 44 -16 85 -17 90 -1 6 -7 26 -14 45 -6 19 -13 49 -15 65
-2 17 -9 40 -16 53 -6 12 -9 26 -6 31 3 5 1 11 -5 13 -5 1 -19 30 -30 63 -11
33 -25 69 -30 80 -5 11 -16 36 -25 55 -8 19 -22 46 -30 60 -8 13 -24 48 -37
77 -12 29 -25 53 -29 53 -3 0 -14 18 -24 40 -10 22 -23 40 -28 40 -6 0 -2 10
9 23 10 12 12 16 4 10 -18 -17 -30 -16 -30 1 0 8 -11 24 -25 37 -13 13 -25 29
-25 35 0 6 -9 19 -19 28 -11 10 -17 24 -14 32 3 8 2 14 -3 12 -5 -1 -22 10
-37 26 -22 22 -26 31 -15 37 7 5 17 9 22 9 6 0 1 6 -9 14 -21 15 -40 12 -30
-5 14 -21 -14 -7 -31 17 -26 35 -85 95 -169 173 -38 35 -69 68 -67 73 1 5 -1
7 -6 4 -5 -3 -24 8 -43 24 -19 16 -28 29 -21 30 17 0 15 20 -3 20 -8 0 -15 -5
-15 -12 0 -6 -8 -3 -20 7 -11 10 -17 22 -13 28 3 6 1 7 -5 3 -6 -4 -20 -1 -32
6 -23 15 -27 33 -6 25 10 -4 13 -1 10 8 -5 11 -10 12 -24 3 -15 -10 -24 -7
-52 13 -18 14 -55 38 -83 54 -27 15 -52 31 -55 35 -3 4 -15 10 -28 14 -12 4
-19 12 -16 18 4 6 2 8 -4 5 -5 -4 -34 5 -62 20 -43 22 -49 28 -34 34 21 8 19
10 -13 14 -12 1 -20 -2 -17 -6 7 -13 2 -11 -42 11 -21 10 -32 19 -24 20 11 0
11 3 2 12 -10 10 -14 10 -20 0 -6 -9 -17 -7 -47 8 -22 11 -45 20 -52 20 -7 0
-13 3 -13 8 0 4 -10 8 -23 8 -13 1 -44 11 -69 23 -26 11 -54 21 -64 21 -11 0
-14 5 -10 16 5 13 4 14 -7 5 -11 -8 -29 -6 -75 8 -34 11 -77 23 -97 27 -19 3
-35 10 -35 16 0 5 -4 7 -9 4 -5 -4 -33 -1 -63 6 -35 8 -46 13 -30 16 35 5 26
22 -12 22 -19 0 -37 6 -40 13 -3 6 -3 2 0 -10 4 -18 1 -20 -15 -16 -12 3 -18
10 -14 17 5 8 3 8 -8 0 -15 -12 -98 -5 -189 16 -64 15 -314 37 -449 39 -63 1
-117 3 -120 4 -3 1 -513 1 -1133 -1z m1118 -800 c-2 -4 28 -8 67 -9 40 0 81
-2 92 -2 31 -2 268 -42 285 -48 8 -4 19 -5 23 -4 9 2 117 -29 132 -37 5 -3 22
-7 38 -9 16 -2 43 -9 61 -17 17 -8 56 -22 86 -32 30 -9 71 -25 90 -35 19 -11
41 -19 48 -19 7 0 10 -5 6 -12 -4 -6 -3 -8 4 -4 14 9 123 -45 115 -57 -3 -6
-1 -7 5 -3 14 9 135 -67 125 -78 -5 -4 -3 -6 2 -5 15 4 55 -11 55 -21 0 -4 19
-19 43 -33 42 -25 229 -202 281 -267 26 -33 71 -99 145 -215 17 -27 35 -61 38
-75 3 -14 12 -34 20 -46 7 -11 10 -24 6 -27 -3 -4 -2 -7 4 -7 17 0 25 -32 11
-42 -10 -6 -11 -8 0 -8 15 0 38 -51 46 -100 1 -9 5 -20 8 -25 12 -21 19 -87 9
-80 -7 4 -10 -3 -9 -19 1 -13 6 -22 10 -20 5 3 6 10 3 15 -4 5 -2 9 4 9 11 0
26 -58 17 -67 -3 -4 0 -13 7 -21 9 -11 12 -78 12 -256 0 -133 -2 -257 -4 -276
-11 -107 -83 -372 -124 -455 -8 -16 -21 -45 -28 -62 -8 -18 -18 -33 -22 -33
-5 0 -6 -4 -3 -9 3 -4 -3 -16 -14 -26 -11 -10 -20 -23 -20 -29 0 -12 -51 -89
-63 -94 -4 -2 -5 -8 -1 -13 3 -5 -1 -9 -8 -9 -8 0 -21 -13 -31 -29 -9 -16 -32
-41 -52 -57 -19 -15 -35 -34 -35 -41 0 -7 -6 -13 -14 -13 -8 0 -17 -7 -20 -16
-3 -8 -11 -12 -17 -8 -7 4 -9 3 -5 -4 6 -11 -10 -27 -29 -27 -5 0 -10 -6 -10
-13 0 -17 -35 -43 -47 -36 -5 3 -7 1 -6 -4 4 -15 -143 -124 -158 -118 -8 3
-13 0 -11 -7 1 -7 -4 -11 -10 -10 -7 2 -13 -1 -13 -7 0 -14 -79 -52 -92 -44
-7 4 -8 3 -4 -4 4 -7 1 -12 -8 -12 -9 0 -16 -4 -16 -8 0 -8 -107 -57 -125 -57
-5 0 -12 -3 -15 -6 -3 -4 -32 -18 -65 -32 -37 -16 -58 -31 -56 -39 2 -7 4 -21
5 -30 0 -9 4 -14 8 -12 8 5 12 0 93 -141 32 -55 65 -108 73 -117 8 -10 11 -18
6 -18 -5 0 -4 -4 1 -8 13 -9 75 -111 75 -122 0 -5 -7 -7 -15 -4 -8 4 -15 1
-15 -4 0 -6 9 -9 19 -7 15 3 28 -10 52 -46 17 -27 29 -52 26 -56 -4 -3 5 -14
18 -25 14 -11 25 -24 25 -30 0 -6 33 -65 74 -132 40 -66 83 -139 95 -161 12
-22 35 -60 51 -85 16 -25 41 -65 55 -90 13 -25 36 -63 49 -85 48 -77 79 -130
95 -160 9 -16 41 -70 70 -119 43 -71 51 -90 40 -98 -11 -8 -10 -9 3 -4 13 4
22 -3 33 -24 l16 -30 -139 0 -139 0 -27 40 c-14 22 -26 42 -26 45 0 3 -12 24
-26 47 -17 27 -23 43 -15 46 6 2 8 8 5 14 -4 6 -10 5 -15 -3 -6 -10 -10 -9
-15 6 -4 11 -16 32 -26 47 -11 16 -16 34 -12 40 4 7 4 10 -1 6 -7 -6 -55 54
-55 68 0 4 -13 26 -30 51 -16 24 -30 46 -30 48 0 3 -13 26 -29 52 -21 34 -28
57 -25 80 2 20 -1 33 -11 37 -11 4 -12 0 -5 -20 13 -34 13 -39 -5 -24 -8 6
-13 15 -12 19 1 4 -15 33 -35 65 -21 32 -35 63 -31 69 3 5 1 7 -5 3 -9 -5 -24
21 -27 45 0 3 -8 13 -18 23 -11 12 -15 25 -11 39 5 15 3 19 -8 14 -9 -3 -21 6
-32 24 -9 16 -14 29 -9 29 4 0 3 4 -2 8 -22 15 -75 107 -70 120 2 7 1 11 -4 8
-4 -3 -18 14 -31 37 -13 23 -30 50 -38 60 -8 9 -11 17 -6 17 5 0 4 4 -2 8 -19
13 -55 82 -49 92 4 6 1 9 -5 8 -6 -2 -24 20 -40 49 -15 29 -38 66 -50 83 -12
16 -18 30 -13 30 4 0 3 4 -3 8 -6 4 -23 28 -38 54 -15 27 -32 50 -36 53 -5 3
-41 -2 -80 -11 -39 -9 -80 -14 -91 -11 -10 3 -19 2 -19 -2 0 -4 -51 -13 -112
-20 -62 -7 -126 -15 -143 -18 -16 -3 -248 -8 -515 -10 -267 -2 -507 -4 -533
-6 l-49 -2 1 -175 c2 -139 5 -178 17 -191 13 -14 13 -18 -1 -29 -13 -11 -15
-79 -15 -541 l0 -528 -120 1 -120 1 0 2443 0 2444 635 -1 c350 0 634 -3 631
-7z m-1795 -401 c11 -2 19 -30 13 -46 -5 -13 -23 -14 -76 -6 -8 1 0 30 14 48
5 6 17 10 26 8 9 -2 20 -4 23 -4z m4243 -1159 c11 -2 15 1 11 7 -3 7 2 11 15
11 11 0 23 -7 26 -15 4 -8 10 -12 15 -9 5 3 9 -2 9 -10 0 -9 5 -16 11 -16 8 0
8 -5 -1 -15 -10 -12 -10 -15 1 -16 10 0 11 -2 2 -6 -7 -2 -13 -11 -13 -19 0
-8 -7 -14 -16 -14 -8 0 -13 -4 -9 -9 3 -6 -13 -10 -36 -9 -27 0 -37 3 -28 9
10 6 8 9 -10 9 -16 0 -21 4 -18 14 4 11 1 13 -11 9 -15 -6 -15 -5 -3 10 7 9
18 14 24 10 6 -3 7 -1 3 6 -4 6 -12 9 -17 6 -5 -3 -6 1 -3 9 3 9 10 16 14 16
5 0 6 10 3 23 -3 12 -1 18 4 12 4 -5 16 -11 27 -13z"/>
<path d="M3555 6410 c-3 -6 1 -7 9 -4 18 7 21 14 7 14 -6 0 -13 -4 -16 -10z"/>
<path d="M3685 6410 c-8 -13 5 -13 25 0 13 8 13 10 -2 10 -9 0 -20 -4 -23 -10z"/>
<path d="M4000 6350 c0 -5 7 -10 16 -10 8 0 12 5 9 10 -3 6 -10 10 -16 10 -5
0 -9 -4 -9 -10z"/>
<path d="M4078 6313 c7 -3 16 -2 19 1 4 3 -2 6 -13 5 -11 0 -14 -3 -6 -6z"/>
<path d="M4117 6309 c7 -7 15 -10 18 -7 3 3 -2 9 -12 12 -14 6 -15 5 -6 -5z"/>
<path d="M4160 6311 c0 -5 7 -11 15 -15 8 -3 15 -1 15 3 0 5 -7 11 -15 15 -8
3 -15 1 -15 -3z"/>
<path d="M4325 6250 c3 -5 8 -10 11 -10 2 0 4 5 4 10 0 6 -5 10 -11 10 -5 0
-7 -4 -4 -10z"/>
<path d="M3961 6243 c-1 -17 16 -25 25 -12 4 7 3 9 -4 5 -5 -3 -13 0 -15 6 -4
9 -6 10 -6 1z"/>
<path d="M2486 6231 c-6 -10 -7 -133 -6 -1759 l0 -1224 573 5 c601 5 628 7
879 57 56 11 121 27 143 35 22 8 49 17 60 19 23 4 47 12 93 32 18 8 37 12 42
9 4 -3 10 0 12 5 2 6 10 12 18 14 14 2 146 69 215 108 17 9 37 20 45 24 8 4
17 10 20 14 13 17 84 59 92 54 5 -3 7 -2 6 3 -2 4 31 39 72 78 87 81 161 168
209 245 19 30 42 67 52 81 10 15 21 39 25 53 3 14 9 24 13 22 3 -2 7 7 8 21 0
14 7 30 13 37 10 8 12 7 7 -6 -4 -10 -2 -18 4 -18 6 0 7 -4 4 -10 -3 -5 -2
-10 3 -10 5 0 9 14 10 30 0 17 -4 30 -9 30 -10 0 -3 37 14 80 6 14 9 29 8 33
0 4 3 16 9 27 5 10 15 51 21 92 6 40 12 84 14 98 3 14 5 106 6 205 1 123 5
182 13 187 8 6 7 8 -2 8 -8 0 -10 5 -5 13 12 19 12 36 1 44 -7 3 -8 1 -4 -5 4
-7 3 -12 -2 -12 -4 0 -13 35 -19 78 -6 42 -14 91 -18 107 -5 17 -8 42 -9 57 0
15 -3 25 -7 23 -3 -2 -11 11 -17 30 -6 20 -6 35 -1 35 5 0 9 -9 9 -20 0 -11 4
-20 8 -20 4 0 8 9 9 20 1 11 -2 20 -8 20 -5 0 -9 6 -9 14 0 8 -4 18 -10 21 -6
3 -7 -1 -4 -9 3 -9 3 -16 0 -16 -12 0 -58 113 -53 131 3 11 0 16 -7 13 -7 -3
-20 13 -31 36 -10 22 -24 45 -31 51 -8 6 -11 15 -8 20 3 5 1 9 -4 9 -5 0 -21
17 -35 37 -21 30 -24 40 -14 52 10 14 10 14 -4 4 -16 -13 -15 -13 -79 66 -17
21 -174 154 -222 188 -32 22 -54 44 -50 48 4 5 1 5 -5 1 -18 -10 -72 24 -66
41 3 7 0 13 -6 13 -6 0 -11 -4 -11 -10 0 -6 -10 -5 -25 2 -14 6 -25 16 -25 21
0 6 -3 7 -6 4 -4 -4 -19 0 -33 7 -14 8 -34 17 -45 20 -12 4 -16 12 -12 22 5
14 4 15 -9 4 -10 -8 -19 -9 -27 -3 -29 22 -280 94 -428 123 -62 12 -93 15
-164 18 -38 2 -47 5 -42 17 4 12 2 13 -14 3 -14 -9 -45 -9 -133 0 -132 14
-1003 17 -1011 3z m1191 -768 c2 -6 12 -9 22 -6 10 3 39 -2 64 -11 26 -9 53
-13 62 -10 8 4 15 1 15 -5 0 -6 7 -11 15 -11 8 0 15 -4 15 -8 0 -5 6 -9 13 -9
16 0 141 -60 181 -87 55 -38 117 -100 142 -142 24 -41 32 -70 15 -59 -5 3 -12
1 -15 -4 -3 -5 1 -11 9 -15 8 -3 15 -1 15 4 0 6 4 10 9 10 11 0 44 -105 39
-122 -3 -7 1 -18 8 -25 17 -18 27 -121 21 -223 -7 -108 -7 -109 -26 -103 -13
4 -13 2 2 -10 17 -14 24 -33 9 -23 -4 3 -8 -5 -8 -17 0 -56 -16 -95 -40 -101
-13 -4 -24 -11 -24 -16 0 -14 18 -12 23 3 2 6 7 9 11 6 23 -21 -133 -225 -163
-214 -36 15 -45 16 -23 2 l24 -14 -26 -16 c-58 -38 -98 -57 -108 -51 -6 4 -8
3 -5 -3 4 -6 -10 -18 -33 -27 -45 -18 -74 -21 -65 -7 3 5 1 12 -4 15 -4 3 -8
-4 -7 -17 1 -19 -8 -24 -69 -40 -98 -24 -212 -37 -332 -36 l-102 0 -1 265 c0
213 2 264 12 258 11 -6 11 -5 0 8 -9 12 -12 113 -11 448 l1 433 166 -5 c105
-3 167 -8 169 -15z"/>
<path d="M3911 5377 c2 -1 13 -9 24 -17 19 -14 19 -14 6 3 -7 9 -18 17 -24 17
-6 0 -8 -1 -6 -3z"/>
<path d="M4087 5243 c-4 -6 1 -14 10 -17 15 -6 15 -8 3 -16 -11 -7 -9 -9 8 -7
22 1 32 17 11 17 -5 0 -7 5 -3 12 4 6 3 8 -4 4 -5 -3 -12 -1 -14 6 -3 8 -6 9
-11 1z"/>
<path d="M4244 5025 c4 -24 16 -30 16 -7 0 12 -4 22 -9 22 -5 0 -8 -7 -7 -15z"/>
<path d="M4260 4886 c0 -2 7 -7 16 -10 8 -3 12 -2 9 4 -6 10 -25 14 -25 6z"/>
<path d="M4280 4829 c0 -5 5 -7 10 -4 6 3 10 8 10 11 0 2 -4 4 -10 4 -5 0 -10
-5 -10 -11z"/>
<path d="M4269 4773 c-6 -40 -4 -101 3 -97 4 3 6 9 3 14 -3 5 -1 20 5 34 6 16
6 26 0 26 -5 0 -7 7 -4 15 4 8 3 15 0 15 -3 0 -7 -3 -7 -7z"/>
<path d="M4186 4642 c-2 -4 -1 -14 4 -22 7 -11 9 -9 7 8 -1 24 -3 26 -11 14z"/>
<path d="M4192 4428 c-7 -7 -12 -21 -12 -31 0 -16 3 -17 14 -8 8 7 14 21 13
32 -2 23 0 22 -15 7z"/>
<path d="M3680 4131 c0 -9 38 -12 44 -3 2 4 -7 8 -20 8 -13 1 -24 -1 -24 -5z"/>
<path d="M3366 4088 c3 -5 10 -6 15 -3 13 9 11 12 -6 12 -8 0 -12 -4 -9 -9z"/>
<path d="M3927 6229 c7 -7 15 -10 18 -7 3 3 -2 9 -12 12 -14 6 -15 5 -6 -5z"/>
<path d="M3810 6216 c0 -2 7 -6 15 -10 8 -3 15 -1 15 4 0 6 -7 10 -15 10 -8 0
-15 -2 -15 -4z"/>
<path d="M4424 6178 c-4 -7 -3 -8 4 -4 7 4 12 2 12 -4 0 -6 4 -9 9 -6 5 4 11
1 13 -5 2 -7 10 -4 18 7 8 11 11 16 6 12 -4 -4 -19 -3 -32 2 -15 6 -26 5 -30
-2z"/>
<path d="M4166 6162 c-3 -6 -1 -14 5 -17 14 -9 20 -2 10 14 -6 8 -11 9 -15 3z"/>
<path d="M4640 6090 c0 -5 5 -10 10 -10 6 0 10 5 10 10 0 6 -4 10 -10 10 -5 0
-10 -4 -10 -10z"/>
<path d="M4370 6070 c-12 -8 -10 -9 7 -7 12 2 26 6 29 10 11 11 -19 8 -36 -3z"/>
<path d="M4530 6001 c0 -7 -4 -9 -10 -6 -5 3 -10 2 -10 -3 0 -5 14 -9 31 -10
17 0 29 0 28 1 -2 2 -12 9 -21 16 -13 10 -18 10 -18 2z"/>
<path d="M4800 5976 c0 -2 7 -7 16 -10 8 -3 12 -2 9 4 -6 10 -25 14 -25 6z"/>
<path d="M4636 5885 c4 -8 7 -15 9 -15 2 0 5 7 9 15 3 9 0 15 -9 15 -9 0 -12
-6 -9 -15z"/>
<path d="M4887 5883 c-8 -13 16 -40 35 -40 9 0 15 4 12 9 -3 5 -10 6 -15 3 -5
-4 -9 1 -9 9 0 17 -16 30 -23 19z"/>
<path d="M4680 5851 c0 -6 9 -9 20 -8 11 1 20 5 20 9 0 4 -9 8 -20 8 -11 0
-20 -4 -20 -9z"/>
<path d="M4784 5849 c-3 -6 -2 -15 3 -20 5 -5 9 -1 10 11 2 22 -2 25 -13 9z"/>
<path d="M4946 5712 c-2 -4 -1 -14 4 -22 7 -11 9 -9 7 8 -1 24 -3 26 -11 14z"/>
<path d="M4925 5609 c-4 -6 -5 -12 -2 -15 2 -3 7 2 10 11 7 17 1 20 -8 4z"/>
<path d="M5101 5514 c0 -11 3 -14 6 -6 3 7 2 16 -1 19 -3 4 -6 -2 -5 -13z"/>
<path d="M5014 5501 c21 -23 26 -26 26 -11 0 5 -10 15 -22 21 -23 12 -23 12
-4 -10z"/>
<path d="M5180 5510 c0 -5 4 -10 9 -10 6 0 13 5 16 10 3 6 -1 10 -9 10 -9 0
-16 -4 -16 -10z"/>
<path d="M5220 5451 c0 -6 5 -13 10 -16 6 -3 10 1 10 9 0 9 -4 16 -10 16 -5 0
-10 -4 -10 -9z"/>
<path d="M5060 5365 c1 -26 2 -28 11 -12 8 14 8 22 0 30 -8 8 -11 3 -11 -18z"/>
<path d="M5280 5300 c0 -11 5 -20 10 -20 6 0 10 9 10 20 0 11 -4 20 -10 20 -5
0 -10 -9 -10 -20z"/>
<path d="M5306 5227 c3 -10 9 -15 12 -12 3 3 0 11 -7 18 -10 9 -11 8 -5 -6z"/>
<path d="M5143 4347 c0 -13 5 -24 13 -24 10 0 10 5 2 21 -15 29 -15 30 -15 3z"/>
<path d="M5310 4315 c0 -2 7 -8 15 -15 12 -10 15 -10 15 2 0 8 -7 15 -15 15
-8 0 -15 -1 -15 -2z"/>
<path d="M5282 4189 c1 -17 4 -25 8 -18 7 10 2 49 -5 49 -2 0 -3 -14 -3 -31z"/>
<path d="M5103 4085 c0 -7 6 -11 14 -8 7 3 13 6 13 8 0 2 -6 5 -13 8 -8 3 -14
-1 -14 -8z"/>
<path d="M5220 4039 c0 -5 -4 -8 -8 -5 -4 2 -8 -3 -8 -13 0 -10 6 -18 12 -18
6 0 12 11 12 24 0 13 -2 23 -4 23 -2 0 -4 -5 -4 -11z"/>
<path d="M5029 4018 c-5 -9 -5 -48 -1 -43 8 7 13 45 7 45 -3 0 -6 -1 -6 -2z"/>
<path d="M5117 3919 c6 -6 9 -18 6 -25 -3 -8 -1 -14 4 -14 16 0 12 38 -5 45
-13 5 -14 3 -5 -6z"/>
<path d="M4943 3869 c-1 -10 4 -22 10 -25 7 -4 9 -4 5 1 -4 4 -3 15 2 25 6 11
5 17 -4 17 -6 0 -13 -8 -13 -18z"/>
<path d="M5131 3844 c-18 -21 -6 -30 14 -11 8 9 15 18 15 21 0 11 -15 5 -29
-10z"/>
<path d="M4897 3835 c3 -8 9 -12 14 -9 12 7 11 11 -5 17 -10 4 -13 1 -9 -8z"/>
<path d="M4857 3781 c-3 -12 0 -18 9 -17 21 3 23 10 9 23 -10 9 -14 8 -18 -6z"/>
<path d="M4763 3697 c0 -7 9 -13 19 -13 10 0 18 1 18 3 0 1 -8 7 -18 12 -13 7
-19 6 -19 -2z"/>
<path d="M4840 3689 c0 -5 5 -7 10 -4 6 3 10 8 10 11 0 2 -4 4 -10 4 -5 0 -10
-5 -10 -11z"/>
<path d="M4940 3690 c0 -5 5 -10 10 -10 6 0 10 5 10 10 0 6 -4 10 -10 10 -5 0
-10 -4 -10 -10z"/>
<path d="M4690 3599 c0 -5 5 -7 10 -4 6 3 10 8 10 11 0 2 -4 4 -10 4 -5 0 -10
-5 -10 -11z"/>
<path d="M4720 3508 c0 -12 38 -10 45 2 4 6 -5 9 -19 8 -15 -1 -26 -6 -26 -10z"/>
<path d="M4778 3493 c7 -3 16 -2 19 1 4 3 -2 6 -13 5 -11 0 -14 -3 -6 -6z"/>
<path d="M4455 3409 c-4 -6 -4 -13 -1 -16 3 -4 6 -1 6 6 0 7 5 9 12 5 7 -4 8
-3 4 4 -9 15 -13 15 -21 1z"/>
<path d="M4486 3307 c3 -10 9 -15 12 -12 3 3 0 11 -7 18 -10 9 -11 8 -5 -6z"/>
<path d="M4370 3269 c0 -5 11 -8 25 -7 14 1 25 5 25 9 0 4 -11 7 -25 7 -14 0
-25 -4 -25 -9z"/>
<path d="M3046 3232 c-3 -5 1 -9 9 -9 8 0 12 4 9 9 -3 4 -7 8 -9 8 -2 0 -6 -4
-9 -8z"/>
<path d="M3965 3129 c-3 -4 2 -6 10 -5 21 3 28 13 10 13 -9 0 -18 -4 -20 -8z"/>
<path d="M3690 3086 c7 -7 13 -7 20 0 6 6 3 10 -10 10 -13 0 -16 -4 -10 -10z"/>
<path d="M4267 3087 c-3 -8 0 -14 7 -14 7 0 13 6 13 14 0 7 -4 13 -8 13 -4 0
-9 -6 -12 -13z"/>
<path d="M4235 3070 c3 -5 8 -10 11 -10 2 0 4 5 4 10 0 6 -5 10 -11 10 -5 0
-7 -4 -4 -10z"/>
<path d="M4086 3033 c-6 -14 -5 -15 5 -6 7 7 10 15 7 18 -3 3 -9 -2 -12 -12z"/>
<path d="M4320 3031 c0 -5 5 -13 10 -16 6 -3 10 -2 10 4 0 5 -4 13 -10 16 -5
3 -10 2 -10 -4z"/>
<path d="M4194 2858 c6 -10 17 -20 25 -23 11 -4 11 -3 2 9 -7 8 -10 19 -8 23
3 5 -3 9 -12 9 -15 0 -16 -4 -7 -18z"/>
<path d="M4396 2863 c6 -4 10 -15 9 -24 -2 -9 4 -16 11 -16 8 0 14 4 14 9 0 4
-4 8 -10 8 -5 0 -9 5 -7 11 1 6 -5 14 -13 16 -10 3 -11 2 -4 -4z"/>
<path d="M2440 2831 c0 -6 4 -13 10 -16 6 -3 7 1 4 9 -7 18 -14 21 -14 7z"/>
<path d="M4300 2796 c0 -2 7 -7 16 -10 8 -3 12 -2 9 4 -6 10 -25 14 -25 6z"/>
<path d="M4275 2710 c3 -5 10 -10 16 -10 5 0 9 5 9 10 0 6 -7 10 -16 10 -8 0
-12 -4 -9 -10z"/>
<path d="M4489 2678 c-6 -21 -5 -38 1 -38 5 0 8 9 7 20 -1 17 -5 26 -8 18z"/>
<path d="M4560 2570 c0 -5 5 -10 11 -10 5 0 7 5 4 10 -3 6 -8 10 -11 10 -2 0
-4 -4 -4 -10z"/>
<path d="M4683 2403 c9 -2 17 -12 17 -21 0 -13 3 -13 12 -4 10 10 10 15 -2 22
-8 5 -22 9 -30 9 -11 -1 -10 -3 3 -6z"/>
<path d="M4741 2311 c-8 -14 -7 -20 2 -24 8 -3 14 4 15 19 2 29 -4 31 -17 5z"/>
<path d="M4700 2250 c0 -5 7 -10 16 -10 8 0 12 5 9 10 -3 6 -10 10 -16 10 -5
0 -9 -4 -9 -10z"/>
<path d="M4785 2250 c-3 -5 -1 -10 4 -10 6 0 11 5 11 10 0 6 -2 10 -4 10 -3 0
-8 -4 -11 -10z"/>
<path d="M4563 2235 c0 -8 4 -15 9 -15 4 0 8 4 8 9 0 6 -4 12 -8 15 -5 3 -9
-1 -9 -9z"/>
<path d="M4707 2033 c-10 -9 -9 -33 1 -33 4 0 8 9 8 20 0 23 0 22 -9 13z"/>
<path d="M4742 1922 c-1 -19 1 -23 7 -13 7 11 9 11 14 0 4 -10 6 -10 6 2 1 9
-5 21 -12 27 -10 8 -13 5 -15 -16z"/>
<path d="M4960 1937 c0 -7 9 -18 20 -25 20 -12 21 -12 4 13 -18 28 -24 31 -24
12z"/>
<path d="M4995 1880 c3 -5 8 -10 11 -10 2 0 4 5 4 10 0 6 -5 10 -11 10 -5 0
-7 -4 -4 -10z"/>
<path d="M5020 1840 c0 -12 7 -20 16 -20 13 0 14 3 5 13 -6 8 -8 17 -4 20 3 4
1 7 -5 7 -7 0 -12 -9 -12 -20z"/>
<path d="M5050 1786 c0 -2 7 -9 15 -16 9 -7 15 -8 15 -2 0 5 -7 12 -15 16 -8
3 -15 4 -15 2z"/>
<path d="M4937 1594 c3 -7 9 -14 14 -14 14 0 10 17 -5 23 -10 4 -13 1 -9 -9z"/>
<path d="M4756 7191 c-3 -4 6 -7 19 -7 14 0 22 2 19 5 -8 8 -34 10 -38 2z"/>
<path d="M4760 7125 c0 -2 6 -8 13 -14 10 -8 14 -7 14 2 0 8 -6 14 -14 14 -7
0 -13 -1 -13 -2z"/>
<path d="M5276 6872 c-2 -4 4 -9 15 -9 10 -1 19 2 19 8 0 11 -27 12 -34 1z"/>
<path d="M5356 6776 c7 -19 20 -21 30 -3 4 6 4 9 -1 5 -4 -4 -14 -3 -22 4 -11
8 -12 7 -7 -6z"/>
<path d="M5660 6530 c0 -5 5 -10 11 -10 5 0 7 5 4 10 -3 6 -8 10 -11 10 -2 0
-4 -4 -4 -10z"/>
<path d="M5700 6490 c0 -6 7 -10 15 -10 8 0 15 2 15 4 0 2 -7 6 -15 10 -8 3
-15 1 -15 -4z"/>
<path d="M5900 6389 c0 -5 5 -7 10 -4 6 3 10 8 10 11 0 2 -4 4 -10 4 -5 0 -10
-5 -10 -11z"/>
<path d="M5977 6196 c-7 -18 17 -53 27 -38 3 6 2 13 -4 17 -6 4 -8 10 -5 15 3
5 1 11 -4 14 -5 3 -11 0 -14 -8z"/>
<path d="M6205 5770 c3 -5 8 -10 11 -10 2 0 4 5 4 10 0 6 -5 10 -11 10 -5 0
-7 -4 -4 -10z"/>
<path d="M6283 5580 c-1 -11 3 -20 9 -20 6 0 8 3 5 7 -4 3 -2 12 4 20 9 10 8
13 -3 13 -7 0 -14 -9 -15 -20z"/>
<path d="M6360 5271 c0 -5 5 -13 10 -16 6 -3 10 -2 10 4 0 5 -4 13 -10 16 -5
3 -10 2 -10 -4z"/>
<path d="M6380 4330 c0 -5 5 -10 10 -10 6 0 10 5 10 10 0 6 -4 10 -10 10 -5 0
-10 -4 -10 -10z"/>
<path d="M6361 4186 c-8 -10 -9 -16 -1 -21 5 -3 13 1 16 10 9 22 -1 29 -15 11z"/>
<path d="M6300 4010 c0 -5 5 -10 10 -10 6 0 10 5 10 10 0 6 -4 10 -10 10 -5 0
-10 -4 -10 -10z"/>
<path d="M6274 3854 c-18 -14 -18 -15 4 -4 12 6 22 13 22 15 0 8 -5 6 -26 -11z"/>
<path d="M6160 3666 c0 -23 16 -27 17 -5 1 10 -2 19 -8 19 -5 0 -9 -6 -9 -14z"/>
<path d="M6040 3450 c0 -5 5 -10 10 -10 6 0 10 5 10 10 0 6 -4 10 -10 10 -5 0
-10 -4 -10 -10z"/>
<path d="M5980 3316 c0 -8 -6 -17 -12 -19 -8 -4 -7 -6 3 -6 19 -1 33 25 19 34
-6 4 -10 0 -10 -9z"/>
<path d="M5906 3243 c-6 -14 -5 -15 5 -6 7 7 10 15 7 18 -3 3 -9 -2 -12 -12z"/>
<path d="M5740 3076 c0 -9 5 -16 10 -16 6 0 10 4 10 9 0 6 -4 13 -10 16 -5 3
-10 -1 -10 -9z"/>
<path d="M5706 3052 c-3 -5 1 -9 9 -9 8 0 15 4 15 9 0 4 -4 8 -9 8 -6 0 -12
-4 -15 -8z"/>
<path d="M5796 3052 c-3 -5 1 -9 9 -9 8 0 12 4 9 9 -3 4 -7 8 -9 8 -2 0 -6 -4
-9 -8z"/>
<path d="M5900 3050 c0 -5 5 -10 10 -10 6 0 10 5 10 10 0 6 -4 10 -10 10 -5 0
-10 -4 -10 -10z"/>
<path d="M5572 2925 c-7 -8 -9 -15 -4 -15 5 0 15 7 22 15 16 19 -1 19 -18 0z"/>
<path d="M5545 2890 c-3 -5 1 -10 9 -10 9 0 16 5 16 10 0 6 -4 10 -9 10 -6 0
-13 -4 -16 -10z"/>
<path d="M5585 2830 c3 -5 8 -10 11 -10 2 0 4 5 4 10 0 6 -5 10 -11 10 -5 0
-7 -4 -4 -10z"/>
<path d="M1227 2563 c-6 -11 -2 -281 4 -287 3 -3 5 62 5 144 -1 83 -2 150 -3
150 -1 0 -4 -3 -6 -7z"/>
<path d="M1220 2249 c0 -5 5 -7 10 -4 6 3 10 8 10 11 0 2 -4 4 -10 4 -5 0 -10
-5 -10 -11z"/>
<path d="M1225 2159 c-4 -6 -5 -12 -2 -15 2 -3 7 2 10 11 7 17 1 20 -8 4z"/>
<path d="M3440 2153 c5 -2 8 -9 5 -13 -3 -5 0 -12 6 -15 7 -5 10 -1 7 10 -1
10 -9 20 -16 21 -7 1 -8 0 -2 -3z"/>
<path d="M1234 2088 c-9 -14 -15 -192 -6 -183 3 3 6 43 7 88 1 46 5 89 9 95 4
7 5 12 2 12 -3 0 -8 -6 -12 -12z"/>
<path d="M3520 2010 c0 -5 7 -10 16 -10 9 0 12 -5 8 -12 -4 -7 -3 -8 4 -4 16
10 15 14 -8 26 -14 7 -20 7 -20 0z"/>
<path d="M3570 1930 c0 -5 7 -10 15 -10 8 0 15 5 15 10 0 6 -7 10 -15 10 -8 0
-15 -4 -15 -10z"/>
<path d="M6135 1851 c-3 -5 -1 -12 4 -15 5 -3 11 1 15 9 6 16 -9 21 -19 6z"/>
<path d="M6183 1775 c0 -8 4 -15 9 -15 4 0 8 4 8 9 0 6 -4 12 -8 15 -5 3 -9
-1 -9 -9z"/>
<path d="M3720 1680 c-9 -17 -8 -20 12 -20 17 0 19 3 9 9 -7 5 -10 14 -7 20 4
6 5 11 2 11 -3 0 -10 -9 -16 -20z"/>
<path d="M3781 1514 c0 -11 3 -14 6 -6 3 7 2 16 -1 19 -3 4 -6 -2 -5 -13z"/>
<path d="M3927 1314 c-8 -8 3 -34 14 -34 11 0 12 27 0 34 -4 3 -11 3 -14 0z"/>
<path d="M1184 1150 c0 -13 4 -16 10 -10 7 7 7 13 0 20 -6 6 -10 3 -10 -10z"/>
<path d="M4025 1130 c-2 -3 5 -7 16 -7 10 -1 19 2 19 6 0 9 -29 10 -35 1z"/>
<path d="M2670 750 c0 -5 5 -10 11 -10 5 0 7 5 4 10 -3 6 -8 10 -11 10 -2 0
-4 -4 -4 -10z"/>
<path d="M2815 750 c-2 -3 9 -7 25 -8 16 -1 31 1 34 6 2 4 -9 8 -26 7 -16 0
-31 -2 -33 -5z"/>
</g>
</svg>
